<svg width="359" height="83" viewBox="0 0 359 83" fill="none" xmlns="http://www.w3.org/2000/svg">
<path d="M120.192 81.3996V0.988983H179.449V9.72509H129.326V36.7026H174.085V45.5761H129.326V72.6635H179.449V81.3996H120.192Z" fill="#010101"/>
<path d="M278.513 81.3721L312.709 0.961517H324.153L358.348 81.3721H348.252L338.403 58.0484H298.513L288.665 81.3721H278.568H278.513ZM302.007 49.6694H334.854L318.431 10.4394L302.007 49.6694Z" fill="#010101"/>
<path d="M228.197 82.3611C219.999 82.3611 212.984 80.5205 207.097 76.8393C201.21 73.158 196.698 68.1856 193.534 61.9494C190.371 55.7133 188.803 48.7903 188.803 41.1806C188.803 33.5708 190.426 26.6479 193.672 20.4117C196.918 14.1756 201.512 9.20312 207.482 5.52187C213.452 1.84062 220.439 0 228.472 0C237.138 0 244.676 2.11535 251.031 6.37351C257.386 10.6317 262.09 16.1261 265.088 22.8292H255.102C252.681 18.5436 249.298 15.1371 244.951 12.6371C240.604 10.1372 235.35 8.87346 229.188 8.87346C222.695 8.87346 217.111 10.302 212.406 13.1866C207.702 16.0711 204.098 19.9172 201.65 24.7798C199.201 29.6423 197.936 35.1092 197.936 41.1806C197.936 47.2519 199.146 52.6089 201.595 57.5264C204.016 62.4164 207.565 66.3175 212.241 69.202C216.891 72.0866 222.475 73.5151 228.968 73.5151C233.837 73.5151 238.431 72.4712 242.778 70.3559C247.124 68.2405 250.646 65.2186 253.369 61.2351C256.093 57.2792 257.441 52.499 257.441 46.8948H228.005V38.6257H265.831V81.3996H257.441V67.1966C255.735 69.779 253.562 72.2514 250.866 74.5591C248.197 76.8667 244.951 78.7623 241.182 80.2183C237.413 81.6743 233.094 82.4161 228.225 82.4161L228.197 82.3611Z" fill="#010101"/>
<path d="M80.1373 1.1813H71.3615V3.73619L73.9475 1.1813L80.1373 7.33503L77.7714 9.72509H80.1373V81.1798H71.3615V16.0986L6.21731 81.1798L0 74.9712L65.3918 9.72509H0V0.961517H80.1373V1.1813Z" fill="#010101"/>
<path d="M71.3615 1.1813H73.9475L71.3615 3.73619V1.1813Z" fill="#010101"/>
<path d="M80.1372 1.1813V7.33503L73.9474 1.1813H80.1372Z" fill="#010101"/>
<path d="M77.7714 9.72509L80.1373 7.33502V9.72509H77.7714Z" fill="#010101"/>
<path d="M71.3615 1.1813H73.9475L71.3615 3.73619V1.1813Z" fill="#010101"/>
<path d="M80.1373 1.1813V7.33503L73.9475 1.1813H80.1373Z" fill="#010101"/>
<path d="M77.7714 9.72509L80.1373 7.33502V9.72509H77.7714Z" fill="#010101"/>
</svg>
