<svg width="310" height="302" viewBox="0 0 310 302" fill="none" xmlns="http://www.w3.org/2000/svg">
<path d="M14.9656 135.327V0H114.663V14.725H30.3438V60.1088H105.667V75.0261H30.3438V120.602H114.663V135.327H14.9656Z" fill="#010101"/>
<path d="M174.91 300.379L232.434 165.052H251.664L309.187 300.379H292.186L275.597 261.149H208.445L191.856 300.379H174.855H174.91ZM214.442 247.028H269.71L242.062 181.013L214.442 247.028Z" fill="#010101"/>
<path d="M66.3271 302C52.5445 302 40.7152 298.896 30.8115 292.687C20.9078 286.478 13.3149 278.154 7.97795 267.66C2.66847 257.166 0 245.518 0 232.716C0 219.914 2.72354 208.265 8.19807 197.771C13.6451 187.277 21.4029 178.925 31.4442 172.717C41.4854 166.508 53.2323 163.431 66.7398 163.431C81.3477 163.431 94.0024 167.002 104.704 174.173C115.405 181.343 123.301 190.573 128.335 201.864H111.554C107.455 194.639 101.76 188.925 94.4701 184.694C87.1799 180.464 78.3216 178.348 67.9503 178.348C57.0287 178.348 47.6202 180.766 39.6972 185.601C31.7743 190.436 25.7496 196.947 21.568 205.134C17.414 213.32 15.3232 222.523 15.3232 232.743C15.3232 242.963 17.3864 252.001 21.4579 260.243C25.557 268.484 31.5267 275.022 39.3671 279.858C47.2075 284.693 56.5885 287.11 67.5101 287.11C75.7081 287.11 83.4385 285.324 90.7562 281.781C98.0464 278.237 103.989 273.127 108.583 266.451C113.15 259.775 115.433 251.726 115.433 242.331H65.887V228.43H129.546V300.379H115.405V276.451C112.544 280.819 108.858 284.94 104.346 288.813C99.8346 292.687 94.415 295.874 88.0877 298.319C81.7328 300.764 74.4701 302 66.2721 302H66.3271Z" fill="#010101"/>
<path d="M309.105 0V10.7416V14.725V134.97H294.359V25.4666L184.731 134.915L174.332 124.531L284.291 14.725H174.277V0H309.105Z" fill="#010101"/>
</svg>
