<svg width="135" height="145" viewBox="0 0 135 145" fill="none" xmlns="http://www.w3.org/2000/svg">
<path d="M68.8624 144.137C54.546 144.137 42.2614 140.919 31.9774 134.451C21.6934 128.014 13.785 119.328 8.28349 108.423C2.75075 97.5182 0 85.3948 0 72.0841C0 58.7733 2.84452 46.6499 8.5023 35.7451C14.1601 24.8403 22.2248 16.154 32.6338 9.68613C43.0429 3.24949 55.265 0 69.3 0C84.4604 0 97.6202 3.71818 108.748 11.1547C119.876 18.5912 128.066 28.2149 133.317 39.9633H115.875C111.624 32.4643 105.716 26.4964 98.1203 22.0907C90.5245 17.7163 81.3658 15.4979 70.5816 15.4979C59.2348 15.4979 49.4509 18.0288 41.2299 23.0593C33.0089 28.0899 26.726 34.8703 22.4123 43.3691C18.0986 51.868 15.9418 61.4292 15.9418 72.0841C15.9418 82.7389 18.0674 92.1126 22.3185 100.674C26.5697 109.267 32.7589 116.047 40.9173 121.078C49.0758 126.108 58.7972 128.639 70.144 128.639C78.6463 128.639 86.6797 126.796 94.2755 123.109C101.871 119.422 108.029 114.11 112.781 107.173C117.532 100.237 119.907 91.8627 119.907 82.0828H68.456V67.6159H134.568V142.45H119.907V117.578C116.938 122.109 113.093 126.389 108.436 130.451C103.747 134.482 98.1203 137.794 91.5248 140.325C84.9292 142.887 77.396 144.168 68.8624 144.168V144.137Z" fill="white"/>
</svg>
