<svg width="94" height="94" viewBox="0 0 94 94" fill="none" xmlns="http://www.w3.org/2000/svg">
<circle cx="47" cy="47" r="44.5" stroke="black" stroke-width="5"/>
<path d="M47.0001 2.5C52.1421 2.50004 57.4499 6.66984 61.6212 14.8965C65.7216 22.9835 68.3311 34.3302 68.3311 47C68.3311 59.6698 65.7216 71.0165 61.6212 79.1035C57.4499 87.3302 52.1421 91.5 47.0001 91.5C41.858 91.5 36.5503 87.3302 32.379 79.1035C28.2785 71.0165 25.669 59.6698 25.669 47C25.669 34.3302 28.2785 22.9835 32.379 14.8965C36.5503 6.66984 41.858 2.5 47.0001 2.5Z" stroke="black" stroke-width="5"/>
<line x1="92.676" y1="50.1619" x2="0.661941" y2="50.1619" stroke="black" stroke-width="5"/>
<line x1="47.5" y1="1" x2="47.5" y2="93.0141" stroke="black" stroke-width="5"/>
</svg>
