<svg width="231" height="54" viewBox="0 0 231 54" fill="none" xmlns="http://www.w3.org/2000/svg">
<path d="M77.1779 52.7942V0.658203H115.217V6.3357H83.0538V23.8182H111.781V29.565H83.0538V47.1167H115.217V52.7942H77.1779Z" fill="#818284"/>
<path d="M178.822 52.7596L200.779 0.658203H208.133L230.09 52.7596H223.596L217.273 37.6312H191.639L185.316 52.7596H178.822ZM193.907 32.2306H215.005L204.456 6.82036L193.907 32.2306Z" fill="#818284"/>
<path d="M146.521 53.4169C141.264 53.4169 136.762 52.2399 132.982 49.8166C129.202 47.4279 126.316 44.2083 124.289 40.1579C122.261 36.1075 121.23 31.6417 121.23 26.6912C121.23 21.7407 122.261 17.2748 124.357 13.2244C126.453 9.174 129.409 5.95445 133.223 3.56575C137.037 1.17704 141.538 0 146.693 0C152.26 0 157.105 1.38476 161.194 4.11965C165.283 6.88916 168.272 10.4203 170.231 14.7823H163.84C162.293 12.0128 160.094 9.79714 157.311 8.17006C154.527 6.54297 151.16 5.74674 147.208 5.74674C143.05 5.74674 139.442 6.68145 136.419 8.55087C133.395 10.4203 131.092 12.9128 129.512 16.0632C127.931 19.2135 127.141 22.7446 127.141 26.6912C127.141 30.6377 127.931 34.0996 129.477 37.2845C131.024 40.4695 133.326 42.9967 136.315 44.8315C139.305 46.7009 142.879 47.6356 147.036 47.6356C150.163 47.6356 153.119 46.9432 155.902 45.5931C158.685 44.2429 160.953 42.2697 162.706 39.6732C164.458 37.1114 165.317 33.9957 165.317 30.3954H146.418V25.0295H170.712V52.7246H165.317V43.5159C164.218 45.2123 162.809 46.7701 161.091 48.2933C159.373 49.782 157.311 50.9936 154.871 51.9629C152.431 52.8977 149.682 53.3823 146.555 53.3823L146.521 53.4169Z" fill="#818284"/>
<path d="M51.4404 0.796679H45.805V2.45839L47.4544 0.796679L51.4404 4.81247L49.9285 6.3357H51.4404V52.6558H45.805V10.49L3.98603 52.6558L0 48.64L41.9908 6.3357H0V0.658203H51.4404V0.796679Z" fill="#818284"/>
<path d="M45.805 0.796875H47.4544L45.805 2.45858V0.796875Z" fill="#818284"/>
<path d="M51.4404 0.796875V4.81267L47.4544 0.796875H51.4404Z" fill="#818284"/>
<path d="M49.9285 6.33573L51.4404 4.8125V6.33573H49.9285Z" fill="#818284"/>
<path d="M45.805 0.796875H47.4544L45.805 2.45858V0.796875Z" fill="#818284"/>
<path d="M51.4404 0.796875V4.81267L47.4543 0.796875H51.4404Z" fill="#818284"/>
<path d="M49.9284 6.33573L51.4404 4.8125V6.33573H49.9284Z" fill="#818284"/>
</svg>
