<?xml version="1.0" encoding="UTF-8"?>
<svg id="Layer_1" xmlns="http://www.w3.org/2000/svg" version="1.1" viewBox="0 0 206.63 192.12">
  <!-- Generator: Adobe Illustrator 30.0.0, SVG Export Plug-In . SVG Version: 2.1.1 Build 123)  -->
  <path d="M20.63,86.76V6.52h59.03v8.73H29.72v26.9h44.6v8.85H29.72v27.03h49.93v8.73H20.63Z"/>
  <path d="M115.34,184.63l34.06-80.23h11.39l34.06,80.23h-10.06l-9.82-23.27h-39.76l-9.82,23.27h-10.06ZM138.74,152.99h32.72l-16.36-39.15-16.36,39.15Z"/>
  <path d="M51.05,185.6c-8.16,0-15.17-1.84-21.03-5.52-5.86-3.68-10.36-8.62-13.51-14.85-3.15-6.22-4.73-13.13-4.73-20.73s1.61-14.51,4.85-20.73c3.23-6.22,7.82-11.17,13.76-14.85,5.94-3.68,12.91-5.51,20.91-5.51,8.65,0,16.14,2.12,22.48,6.36,6.34,4.24,11.01,9.72,14,16.42h-9.94c-2.42-4.28-5.8-7.68-10.12-10.18-4.32-2.5-9.56-3.76-15.7-3.76-6.46,0-12.04,1.43-16.73,4.3-4.69,2.87-8.26,6.72-10.73,11.57-2.46,4.85-3.7,10.3-3.7,16.36s1.22,11.41,3.64,16.3c2.42,4.89,5.96,8.77,10.61,11.64,4.64,2.87,10.2,4.3,16.66,4.3,4.85,0,9.43-1.05,13.76-3.15,4.32-2.1,7.84-5.13,10.55-9.09,2.7-3.96,4.06-8.73,4.06-14.3h-29.33v-8.24h37.69v42.66h-8.36v-14.18c-1.69,2.59-3.88,5.03-6.54,7.33-2.67,2.3-5.88,4.18-9.63,5.64-3.76,1.46-8.06,2.18-12.91,2.18Z"/>
  <polygon points="194.79 6.52 194.79 86.56 186.06 86.56 186.06 21.62 121.15 86.53 114.98 80.36 180.1 15.24 114.95 15.24 114.95 6.52 194.79 6.52"/>
</svg>