<?xml version="1.0" encoding="UTF-8"?>
<svg id="Layer_1" xmlns="http://www.w3.org/2000/svg" version="1.1" viewBox="0 0 518.98 123.7">
  <!-- Generator: Adobe Illustrator 30.0.0, SVG Export Plug-In . SVG Version: 2.1.1 Build 123)  -->
  <polygon points="124.22 7.71 124.22 116 112.4 116 112.4 28.14 24.57 115.97 16.22 107.61 104.34 19.53 16.2 19.53 16.2 7.71 124.22 7.71"/>
  <g>
    <path d="M178.32,116.15V7.59h79.85v11.81h-67.55v36.4h60.34v11.97h-60.34v36.57h67.55v11.81h-79.85Z"/>
    <path d="M391.75,116.12L437.83,7.56h15.42l46.08,108.55h-13.61l-13.28-31.48h-53.78l-13.28,31.48h-13.62ZM423.39,73.32h44.28l-22.14-52.96-22.14,52.96Z"/>
    <path d="M323.89,117.44c-11.04,0-20.52-2.48-28.44-7.47-7.92-4.97-14.03-11.66-18.28-20.09-4.27-8.41-6.4-17.77-6.4-28.04s2.19-19.63,6.56-28.04c4.37-8.42,10.58-15.11,18.62-20.09,8.03-4.97,17.47-7.47,28.28-7.47,11.7,0,21.84,2.86,30.42,8.61,8.59,5.74,14.89,13.15,18.94,22.22h-13.45c-3.28-5.79-7.84-10.38-13.69-13.77-5.85-3.39-12.93-5.08-21.24-5.08-8.75,0-16.29,1.94-22.63,5.82-6.34,3.87-11.18,9.1-14.51,15.66s-4.99,13.95-4.99,22.14,1.65,15.44,4.93,22.06c3.28,6.62,8.06,11.87,14.35,15.74,6.28,3.87,13.8,5.82,22.54,5.82,6.56,0,12.76-1.42,18.62-4.27,5.85-2.83,10.61-6.94,14.27-12.3,3.66-5.36,5.49-11.81,5.49-19.35h-39.68v-11.15h51v57.71h-11.31v-19.18c-2.3,3.5-5.25,6.8-8.86,9.92-3.6,3.12-7.95,5.66-13.04,7.63-5.09,1.97-10.91,2.96-17.47,2.96h-.04Z"/>
  </g>
</svg>