<?xml version="1.0" encoding="UTF-8"?>
<svg id="Layer_1" xmlns="http://www.w3.org/2000/svg" version="1.1" viewBox="0 0 285.37 265.33">
  <!-- Generator: Adobe Illustrator 30.0.0, SVG Export Plug-In . SVG Version: 2.1.1 Build 123)  -->
  <path d="M31.06,120.11V11.79h79.69v11.79H43.33v36.32h60.21v11.95h-60.21v36.49h67.41v11.79s-79.68,0-79.68,0Z"/>
  <path d="M158.92,252.23l45.98-108.31h15.38l45.98,108.31h-13.58l-13.26-31.41h-53.68l-13.26,31.41h-13.58.01ZM190.51,209.52h44.17l-22.09-52.85-22.09,52.85Z"/>
  <path d="M72.13,253.54c-11.02,0-20.48-2.48-28.39-7.45-7.91-4.97-13.99-11.64-18.24-20.05-4.25-8.4-6.39-17.73-6.39-27.99s2.17-19.59,6.55-27.99c4.36-8.4,10.56-15.08,18.58-20.05,8.02-4.97,17.43-7.44,28.23-7.44,11.68,0,21.79,2.86,30.35,8.59,8.56,5.72,14.86,13.12,18.9,22.17h-13.42c-3.27-5.78-7.83-10.37-13.66-13.74s-12.91-5.08-21.2-5.08c-8.72,0-16.25,1.93-22.59,5.81-6.33,3.87-11.15,9.07-14.49,15.62-3.32,6.55-5,13.91-5,22.09s1.65,15.4,4.91,22.01,8.05,11.84,14.32,15.71c6.26,3.87,13.77,5.81,22.49,5.81,6.55,0,12.73-1.42,18.58-4.25,5.83-2.84,10.58-6.93,14.24-12.27,3.64-5.35,5.48-11.79,5.48-19.31h-39.6v-11.12h50.88v57.59h-11.29v-19.14c-2.28,3.5-5.24,6.79-8.83,9.9-3.6,3.11-7.94,5.64-13,7.61-5.08,1.97-10.88,2.94-17.43,2.94v.04Z"/>
  <polygon points="266.18 11.79 266.18 119.84 254.39 119.84 254.39 32.17 166.76 119.8 158.43 111.47 246.34 23.56 158.39 23.56 158.39 11.79 266.18 11.79"/>
</svg>