<?xml version="1.0" encoding="UTF-8"?>
<svg id="Layer_1" xmlns="http://www.w3.org/2000/svg" version="1.1" viewBox="0 0 383.52 123.7">
  <!-- Generator: Adobe Illustrator 30.0.0, SVG Export Plug-In . SVG Version: 2.1.1 Build 123)  -->
  <polygon points="92.84 21.75 92.84 101.96 84.09 101.96 84.09 36.88 19.03 101.94 12.84 95.75 78.12 30.5 12.83 30.5 12.83 21.75 92.84 21.75"/>
  <g>
    <path d="M132.92,102.07V21.66h59.15v8.75h-50.04v26.96h44.7v8.87h-44.7v27.09h50.04v8.75h-59.15Z"/>
    <path d="M291.01,102.05l34.14-80.41h11.42l34.13,80.41h-10.08l-9.84-23.32h-39.84l-9.84,23.32h-10.08ZM314.45,70.35h32.8l-16.4-39.23-16.4,39.23Z"/>
    <path d="M240.75,103.03c-8.18,0-15.2-1.84-21.07-5.53-5.87-3.68-10.39-8.64-13.54-14.88-3.16-6.23-4.74-13.16-4.74-20.77s1.62-14.54,4.86-20.77c3.24-6.24,7.84-11.19,13.79-14.88,5.95-3.68,12.94-5.53,20.95-5.53,8.67,0,16.18,2.12,22.53,6.38,6.36,4.25,11.03,9.74,14.03,16.46h-9.96c-2.43-4.29-5.81-7.69-10.14-10.2-4.33-2.51-9.58-3.76-15.73-3.76-6.48,0-12.07,1.44-16.76,4.31-4.7,2.87-8.28,6.74-10.75,11.6s-3.7,10.33-3.7,16.4,1.22,11.44,3.65,16.34c2.43,4.9,5.97,8.79,10.63,11.66,4.65,2.87,10.22,4.31,16.7,4.31,4.86,0,9.45-1.05,13.79-3.16,4.33-2.1,7.86-5.14,10.57-9.11,2.71-3.97,4.07-8.75,4.07-14.33h-29.39v-8.26h37.78v42.75h-8.38v-14.21c-1.7,2.59-3.89,5.04-6.56,7.35-2.67,2.31-5.89,4.19-9.66,5.65-3.77,1.46-8.08,2.19-12.94,2.19Z"/>
  </g>
</svg>